<svg id="visual" viewBox="0 0 900 600" width="900" height="600" xmlns="http://www.w3.org/2000/svg" xmlns:xlink="http://www.w3.org/1999/xlink" version="1.1"><g stroke-width="1" stroke-linejoin="bevel"><path d="M501 237L537 279L585 281Z" fill="#246688" stroke="#246688"></path><path d="M585 281L610 170L501 237Z" fill="#277297" stroke="#277297"></path><path d="M585 281L698 189L610 170Z" fill="#297ea6" stroke="#297ea6"></path><path d="M593 63L520 75L610 170Z" fill="#0c2435" stroke="#0c2435"></path><path d="M610 170L520 75L501 237Z" fill="#112e42" stroke="#112e42"></path><path d="M423 122L412 174L501 237Z" fill="#15384f" stroke="#15384f"></path><path d="M391 415L538 413L537 279Z" fill="#00101c" stroke="#00101c"></path><path d="M728 97L593 63L610 170Z" fill="#19435d" stroke="#19435d"></path><path d="M665 389L713 294L585 281Z" fill="#00101c" stroke="#00101c"></path><path d="M585 281L713 294L698 189Z" fill="#081a28" stroke="#081a28"></path><path d="M520 75L423 122L501 237Z" fill="#081a28" stroke="#081a28"></path><path d="M360 327L537 279L501 237Z" fill="#19435d" stroke="#19435d"></path><path d="M537 279L538 413L585 281Z" fill="#277297" stroke="#277297"></path><path d="M563 427L665 389L585 281Z" fill="#0c2435" stroke="#0c2435"></path><path d="M794 128L728 97L698 189Z" fill="#246688" stroke="#246688"></path><path d="M698 189L728 97L610 170Z" fill="#205a7a" stroke="#205a7a"></path><path d="M538 413L563 427L585 281Z" fill="#277297" stroke="#277297"></path><path d="M703 0L607 0L593 63Z" fill="#00101c" stroke="#00101c"></path><path d="M593 63L607 0L520 75Z" fill="#112e42" stroke="#112e42"></path><path d="M520 75L468 0L423 122Z" fill="#246688" stroke="#246688"></path><path d="M317 305L360 327L412 174Z" fill="#205a7a" stroke="#205a7a"></path><path d="M412 174L360 327L501 237Z" fill="#297ea6" stroke="#297ea6"></path><path d="M538 413L533 525L563 427Z" fill="#1d4e6b" stroke="#1d4e6b"></path><path d="M607 0L468 0L520 75Z" fill="#0c2435" stroke="#0c2435"></path><path d="M815 264L698 189L713 294Z" fill="#19435d" stroke="#19435d"></path><path d="M815 264L803 172L698 189Z" fill="#0c2435" stroke="#0c2435"></path><path d="M803 172L794 128L698 189Z" fill="#00101c" stroke="#00101c"></path><path d="M728 97L703 0L593 63Z" fill="#00101c" stroke="#00101c"></path><path d="M809 417L815 264L713 294Z" fill="#0c2435" stroke="#0c2435"></path><path d="M825 0L703 0L728 97Z" fill="#00101c" stroke="#00101c"></path><path d="M360 327L391 415L537 279Z" fill="#081a28" stroke="#081a28"></path><path d="M266 198L317 305L412 174Z" fill="#0c2435" stroke="#0c2435"></path><path d="M360 327L335 431L391 415Z" fill="#205a7a" stroke="#205a7a"></path><path d="M321 78L412 174L423 122Z" fill="#19435d" stroke="#19435d"></path><path d="M533 525L633 484L563 427Z" fill="#15384f" stroke="#15384f"></path><path d="M563 427L633 484L665 389Z" fill="#1d4e6b" stroke="#1d4e6b"></path><path d="M665 389L809 417L713 294Z" fill="#205a7a" stroke="#205a7a"></path><path d="M468 0L396 0L423 122Z" fill="#1d4e6b" stroke="#1d4e6b"></path><path d="M396 0L321 78L423 122Z" fill="#246688" stroke="#246688"></path><path d="M321 78L266 198L412 174Z" fill="#246688" stroke="#246688"></path><path d="M391 415L533 525L538 413Z" fill="#1d4e6b" stroke="#1d4e6b"></path><path d="M317 305L335 431L360 327Z" fill="#0c2435" stroke="#0c2435"></path><path d="M391 415L381 529L533 525Z" fill="#081a28" stroke="#081a28"></path><path d="M216 313L335 431L317 305Z" fill="#15384f" stroke="#15384f"></path><path d="M705 524L665 389L633 484Z" fill="#112e42" stroke="#112e42"></path><path d="M705 524L809 417L665 389Z" fill="#277297" stroke="#277297"></path><path d="M590 600L705 524L633 484Z" fill="#277297" stroke="#277297"></path><path d="M900 300L900 194L815 264Z" fill="#205a7a" stroke="#205a7a"></path><path d="M815 264L900 194L803 172Z" fill="#15384f" stroke="#15384f"></path><path d="M803 172L900 133L794 128Z" fill="#297ea6" stroke="#297ea6"></path><path d="M794 128L825 0L728 97Z" fill="#246688" stroke="#246688"></path><path d="M900 133L825 0L794 128Z" fill="#297ea6" stroke="#297ea6"></path><path d="M809 417L900 300L815 264Z" fill="#246688" stroke="#246688"></path><path d="M900 194L900 133L803 172Z" fill="#205a7a" stroke="#205a7a"></path><path d="M335 431L381 529L391 415Z" fill="#297ea6" stroke="#297ea6"></path><path d="M730 600L774 537L705 524Z" fill="#00101c" stroke="#00101c"></path><path d="M266 198L216 313L317 305Z" fill="#112e42" stroke="#112e42"></path><path d="M335 431L297 533L381 529Z" fill="#205a7a" stroke="#205a7a"></path><path d="M195 101L198 206L266 198Z" fill="#081a28" stroke="#081a28"></path><path d="M266 198L198 206L216 313Z" fill="#277297" stroke="#277297"></path><path d="M396 0L277 0L321 78Z" fill="#1d4e6b" stroke="#1d4e6b"></path><path d="M195 101L266 198L321 78Z" fill="#0c2435" stroke="#0c2435"></path><path d="M705 524L774 537L809 417Z" fill="#00101c" stroke="#00101c"></path><path d="M809 417L900 415L900 300Z" fill="#112e42" stroke="#112e42"></path><path d="M590 600L633 484L533 525Z" fill="#112e42" stroke="#112e42"></path><path d="M535 600L590 600L533 525Z" fill="#0c2435" stroke="#0c2435"></path><path d="M438 600L535 600L533 525Z" fill="#0c2435" stroke="#0c2435"></path><path d="M239 0L195 101L321 78Z" fill="#246688" stroke="#246688"></path><path d="M900 528L900 415L809 417Z" fill="#0c2435" stroke="#0c2435"></path><path d="M277 0L239 0L321 78Z" fill="#081a28" stroke="#081a28"></path><path d="M381 529L438 600L533 525Z" fill="#297ea6" stroke="#297ea6"></path><path d="M900 133L900 0L825 0Z" fill="#205a7a" stroke="#205a7a"></path><path d="M182 469L297 533L335 431Z" fill="#112e42" stroke="#112e42"></path><path d="M381 529L276 600L438 600Z" fill="#205a7a" stroke="#205a7a"></path><path d="M590 600L730 600L705 524Z" fill="#205a7a" stroke="#205a7a"></path><path d="M774 537L900 528L809 417Z" fill="#081a28" stroke="#081a28"></path><path d="M128 360L164 403L216 313Z" fill="#1d4e6b" stroke="#1d4e6b"></path><path d="M216 313L164 403L335 431Z" fill="#1d4e6b" stroke="#1d4e6b"></path><path d="M133 321L216 313L198 206Z" fill="#246688" stroke="#246688"></path><path d="M71 215L133 321L198 206Z" fill="#00101c" stroke="#00101c"></path><path d="M730 600L807 600L774 537Z" fill="#0c2435" stroke="#0c2435"></path><path d="M94 510L182 469L164 403Z" fill="#112e42" stroke="#112e42"></path><path d="M164 403L182 469L335 431Z" fill="#15384f" stroke="#15384f"></path><path d="M807 600L900 528L774 537Z" fill="#277297" stroke="#277297"></path><path d="M133 321L128 360L216 313Z" fill="#081a28" stroke="#081a28"></path><path d="M233 600L276 600L297 533Z" fill="#15384f" stroke="#15384f"></path><path d="M297 533L276 600L381 529Z" fill="#00101c" stroke="#00101c"></path><path d="M75 76L71 215L195 101Z" fill="#15384f" stroke="#15384f"></path><path d="M195 101L71 215L198 206Z" fill="#19435d" stroke="#19435d"></path><path d="M133 321L0 307L128 360Z" fill="#112e42" stroke="#112e42"></path><path d="M182 469L233 600L297 533Z" fill="#277297" stroke="#277297"></path><path d="M94 510L233 600L182 469Z" fill="#205a7a" stroke="#205a7a"></path><path d="M807 600L900 600L900 528Z" fill="#0c2435" stroke="#0c2435"></path><path d="M86 0L75 76L195 101Z" fill="#277297" stroke="#277297"></path><path d="M239 0L86 0L195 101Z" fill="#277297" stroke="#277297"></path><path d="M0 417L94 510L128 360Z" fill="#112e42" stroke="#112e42"></path><path d="M128 360L94 510L164 403Z" fill="#112e42" stroke="#112e42"></path><path d="M0 125L0 192L71 215Z" fill="#00101c" stroke="#00101c"></path><path d="M71 215L0 307L133 321Z" fill="#277297" stroke="#277297"></path><path d="M0 125L71 215L75 76Z" fill="#15384f" stroke="#15384f"></path><path d="M0 192L0 307L71 215Z" fill="#205a7a" stroke="#205a7a"></path><path d="M0 0L0 125L75 76Z" fill="#246688" stroke="#246688"></path><path d="M0 307L0 417L128 360Z" fill="#19435d" stroke="#19435d"></path><path d="M86 0L0 0L75 76Z" fill="#00101c" stroke="#00101c"></path><path d="M0 537L77 600L94 510Z" fill="#297ea6" stroke="#297ea6"></path><path d="M94 510L77 600L233 600Z" fill="#297ea6" stroke="#297ea6"></path><path d="M0 417L0 537L94 510Z" fill="#1d4e6b" stroke="#1d4e6b"></path><path d="M0 537L0 600L77 600Z" fill="#205a7a" stroke="#205a7a"></path></g></svg>